<?xml version="1.0" encoding="utf-8"?>
<svg xmlns="http://www.w3.org/2000/svg" xmlns:xlink="http://www.w3.org/1999/xlink" version="1.1" x="0px" y="0px" viewBox="0 0 32 32" enable-background="new 0 0 32 32" xml:space="preserve">
<g id="Layer_6" display="none">
</g>
<g id="Layer_4" display="none">
	<path display="inline" fill="#00D09C" d="M16,0C7.178,0,0,7.178,0,16c0,8.822,7.178,16,16,16s16-7.178,16-16   C32,7.178,24.822,0,16,0L16,0z"/>
	<path display="inline" d="M16,1.625C8.074,1.625,1.625,8.074,1.625,16c0,7.926,6.449,14.375,14.375,14.375S30.375,23.926,30.375,16   C30.375,8.074,23.926,1.625,16,1.625L16,1.625z"/>
	<path display="inline" opacity="0.22" fill="#FFFFFF" d="M16,1.625L16,1.625C8.074,1.625,1.625,8.074,1.625,16   c0,7.926,6.449,14.375,14.375,14.375V1.625z"/>
</g>
<g id="art_1" display="none">
	<g display="inline">
		<path d="M16.482,0.567c-8.376,0-15.191,6.8-15.191,15.159c0,8.358,6.815,15.158,15.191,15.158s15.191-6.8,15.191-15.158    C31.673,7.367,24.859,0.567,16.482,0.567L16.482,0.567z"/>
		<g>
			<path fill="none" d="M16.482,0.567c-8.376,0-15.191,6.8-15.191,15.159c0,8.358,6.815,15.158,15.191,15.158     s15.191-6.8,15.191-15.158C31.673,7.367,24.859,0.567,16.482,0.567L16.482,0.567z"/>
			<g>
				<path fill="#FF0000" d="M18.491,2.071c0.737,0.035,1.401,0.17,2,0.228c1.476,0.615,2.579,1.054,3.671,1.629      c1.056,0.601,2.184,1.26,3.219,2.603c0.946,1.155,1.669,2.225,2.196,3.379c0.51,1.154,0.931,2.36,1.042,3.799      c0.194,0.208,0.33,0.67,0.366,1.282c0.087,0.61,0.011,1.361-0.054,2.144c-0.202,1.572-0.785,3.173-1.013,4.253      c-0.547,1.346-0.771,2.167-0.135,1.212c-1.012,1.815-0.96,1.207-1.913,2.634c0.015,0.009,0.195-0.581,0.195-0.581      c-0.354,0.435-0.883,0.785-1.337,1.352l-0.471,0.704c-0.472,0.342-0.799,0.579-1.12,0.812c-0.33,0.27-0.655,0.505-0.994,0.732      c-0.333,0.236-0.669,0.486-1.077,0.68c-0.401,0.205-0.833,0.438-1.372,0.574c1.412-0.354-0.577,0.338-0.375,0.443      c-0.336,0.083-1.665,0.325-1.229,0.167c-1.816,0.384-3.58,0.81-4.644,0.405c0,0-0.698,0.056-0.697,0.036      c-1.195-0.032-2.1-0.392-3.103-0.787l-0.179,0.056c-0.711-0.155-1.92-0.743-2.402-1.158c-1.615-0.967-3.578-2.358-4.869-3.913      c-0.566-0.815-0.686-1.069-0.907-1.237c-0.197-0.183-0.432-0.32-0.851-1.134c-0.248-0.525-0.522-1.267-0.788-1.955      c-0.208-0.705-0.385-1.366-0.371-1.727c0.386,1.564,0.733,1.684,1.314,3.236c-0.09-0.307,0.242,0.313,0.531,0.83      c0.314,0.505,0.618,0.885,0.298,0.227c-0.879-1.311-1.518-3.004-1.815-4.72c-0.17-0.858-0.201-1.721-0.257-2.55      c0.027-0.828,0.004-1.625,0.086-2.358c0.135,0.129,0.293-0.759,0.601-1.802c0.129-0.528,0.366-1.071,0.525-1.582      c0.2-0.495,0.409-0.926,0.534-1.221L3.207,8.73c0.295-0.472,0.546-0.871,0.836-1.335C4.388,6.963,4.691,6.394,5.26,5.735      c1.362-1.57,3.063-2.838,4.718-3.432c1.192-0.491,2.522-0.907,3.705-1.237c1.188-0.312,2.236-0.463,2.8-0.599      c-1.614-0.114-3.18,0.192-4.573,0.619C10.531,1.578,9.296,2.11,8.147,2.569c1.998-1.085,2.118-1.167,3.726-1.925      c0,0-0.23,0.045-0.458,0.103c-0.229,0.056-0.458,0.113-0.458,0.113l0.699-0.324c-0.411,0.012,0.54-0.375,0.403-0.437      c-0.03-0.092-2.678,0.957-2.653,1.013c1.415-0.571,0.55-0.021,0.212,0.271c0,0-0.328,0.147-0.657,0.294      c-0.321,0.161-0.63,0.347-0.63,0.347c0.315-0.131,1.089-0.54,0.233,0.054c-0.25,0.139-0.53,0.321-0.82,0.502      C7.462,2.768,7.189,2.987,6.909,3.142c0,0,0.772-0.882,0.793-0.858c-1.337,1.132-2.657,1.682-3.696,3.17L3.484,5.736      c0,0-0.252,0.344-0.504,0.688C2.734,6.771,2.529,7.146,2.529,7.146l0.028-0.21c0,0-0.275,0.435-0.549,0.869      C1.761,8.256,1.536,8.72,1.536,8.72c-0.463,1.014-0.332,1.241-0.343,1.443c-0.316,0.788-0.433,1.599-0.582,1.915l0.102-0.994      l-0.275,0.876c0.202-0.596-0.11,0.759-0.048,0.996c-0.085,0.503-0.143,0.843-0.185,1.092c-0.021,0.246-0.035,0.399-0.047,0.539      C0.13,14.851,0.094,15.018,0,15.661c0.078,0.664,0.071,1.406,0.139,1.986c0.079,0.579,0.15,1.002,0.252,1.021      c0.288,2.415,1.388,4.853,2.759,6.708l0.707,0.735c0.84,1.075,1.576,1.757,2.374,2.366c0.814,0.59,1.669,1.144,2.935,1.762      l-0.227-0.045c0,0,0.365,0.133,0.73,0.265c0.181,0.065,0.362,0.13,0.498,0.179c0.14,0.037,0.234,0.061,0.234,0.061      c0.484,0.208,0.904,0.371,1.296,0.497c0.392,0.085,0.767,0.166,1.152,0.25c0.376,0.095,0.776,0.119,1.223,0.19      c0.222,0.037,0.456,0.076,0.718,0.12c0.25,0.027,0.523,0.057,0.841,0.092c0.329,0.024,0.635,0.055,0.922,0.057      c0.286-0.016,0.549-0.031,0.8-0.046c0.495-0.031,0.914-0.084,1.27-0.19c0.714-0.18,1.192-0.37,1.563-0.62      c1.192-0.365,2.693-0.823,3.712-1.319l-0.623,0.403l0.896-0.323c1.367-0.894,1.542-0.825,3.083-2.301      c2.16-1.972,1.432-2.024,2.061-3.041c0,0,0.112-0.128,0.26-0.334c0.153-0.205,0.357-0.479,0.56-0.753      c0.216-0.269,0.364-0.578,0.506-0.795c0.133-0.222,0.222-0.37,0.222-0.37l-0.077,0.031c0.225-0.786,0.241-1.104,0.464-1.644      c0.117-0.268,0.197-0.62,0.343-1.125c0.167-0.501,0.267-1.186,0.406-2.127l-0.192,0.152c0.293-1.25,0.067-1.818-0.047-3.428      c-0.032-0.196-0.062-0.496-0.095-0.858c-0.021-0.365-0.075-0.787-0.18-1.22c-0.148-0.88-0.497-1.797-0.855-2.405      c-0.28-0.658-0.525-1.24-0.865-1.704c-0.309-0.482-0.624-0.895-0.98-1.258c-0.332-0.38-0.677-0.727-1.064-1.068      c-0.193-0.186-0.38-0.367-0.57-0.55c-0.21-0.176-0.424-0.364-0.644-0.569c-1.011-1.065-2.067-1.352-2.158-1.723l0.226,0.134      l-0.325-0.519l-0.155,0.137c-0.725-0.518-1.913-0.966-2.568-1.405c0,0-0.514-0.106-1.039-0.128      c-0.258-0.02-0.516-0.04-0.71-0.055c-0.191-0.019-0.321-0.016-0.321-0.016c0.492,0.076,1.021,0.244,1.55,0.403l-0.037-0.069      c0.501,0.164,1.732,0.565,2.232,0.937l-0.686-0.259c0.735,0.406,0.066,0.186-0.153,0.114c-1.527-0.664-1.159-0.363-2.386-0.631      c-0.265-0.107-0.791-0.234-0.584-0.249c-0.373-0.027-1.035-0.192-1.628-0.24c-0.594-0.037-1.104-0.05-1.137,0.047      c-0.057-0.014-0.093-0.022-0.147-0.035c0.124,0.18,0.391,0.367,0.744,0.556C17.581,1.627,18.021,1.814,18.491,2.071z"/>
			</g>
		</g>
	</g>
</g>
<g id="art_1_copy" display="none">
	<g display="inline">
		<path d="M16.482,0.567c-8.376,0-15.191,6.8-15.191,15.159c0,8.358,6.815,15.158,15.191,15.158s15.191-6.8,15.191-15.158    C31.673,7.367,24.859,0.567,16.482,0.567L16.482,0.567z"/>
		<g>
			<path fill="none" d="M16.482,0.567c-8.376,0-15.191,6.8-15.191,15.159c0,8.358,6.815,15.158,15.191,15.158     s15.191-6.8,15.191-15.158C31.673,7.367,24.859,0.567,16.482,0.567L16.482,0.567z"/>
			<g>
				<path fill="#999999" d="M18.491,2.071c0.737,0.035,1.401,0.17,2,0.228c1.476,0.615,2.579,1.054,3.671,1.629      c1.056,0.601,2.184,1.26,3.219,2.603c0.946,1.155,1.669,2.225,2.196,3.379c0.51,1.154,0.931,2.36,1.042,3.799      c0.194,0.208,0.33,0.67,0.366,1.282c0.087,0.61,0.011,1.361-0.054,2.144c-0.202,1.572-0.785,3.173-1.013,4.253      c-0.547,1.346-0.771,2.167-0.135,1.212c-1.012,1.815-0.96,1.207-1.913,2.634c0.015,0.009,0.195-0.581,0.195-0.581      c-0.354,0.435-0.883,0.785-1.337,1.352l-0.471,0.704c-0.472,0.342-0.799,0.579-1.12,0.812c-0.33,0.27-0.655,0.505-0.994,0.732      c-0.333,0.236-0.669,0.486-1.077,0.68c-0.401,0.205-0.833,0.438-1.372,0.574c1.412-0.354-0.577,0.338-0.375,0.443      c-0.336,0.083-1.665,0.325-1.229,0.167c-1.816,0.384-3.58,0.81-4.644,0.405c0,0-0.698,0.056-0.697,0.036      c-1.195-0.032-2.1-0.392-3.103-0.787l-0.179,0.056c-0.711-0.155-1.92-0.743-2.402-1.158c-1.615-0.967-3.578-2.358-4.869-3.913      c-0.566-0.815-0.686-1.069-0.907-1.237c-0.197-0.183-0.432-0.32-0.851-1.134c-0.248-0.525-0.522-1.267-0.788-1.955      c-0.208-0.705-0.385-1.366-0.371-1.727c0.386,1.564,0.733,1.684,1.314,3.236c-0.09-0.307,0.242,0.313,0.531,0.83      c0.314,0.505,0.618,0.885,0.298,0.227c-0.879-1.311-1.518-3.004-1.815-4.72c-0.17-0.858-0.201-1.721-0.257-2.55      c0.027-0.828,0.004-1.625,0.086-2.358c0.135,0.129,0.293-0.759,0.601-1.802c0.129-0.528,0.366-1.071,0.525-1.582      c0.2-0.495,0.409-0.926,0.534-1.221L3.207,8.73c0.295-0.472,0.546-0.871,0.836-1.335C4.388,6.963,4.691,6.394,5.26,5.735      c1.362-1.57,3.063-2.838,4.718-3.432c1.192-0.491,2.522-0.907,3.705-1.237c1.188-0.312,2.236-0.463,2.8-0.599      c-1.614-0.114-3.18,0.192-4.573,0.619C10.531,1.578,9.296,2.11,8.147,2.569c1.998-1.085,2.118-1.167,3.726-1.925      c0,0-0.23,0.045-0.458,0.103c-0.229,0.056-0.458,0.113-0.458,0.113l0.699-0.324c-0.411,0.012,0.54-0.375,0.403-0.437      c-0.03-0.092-2.678,0.957-2.653,1.013c1.415-0.571,0.55-0.021,0.212,0.271c0,0-0.328,0.147-0.657,0.294      c-0.321,0.161-0.63,0.347-0.63,0.347c0.315-0.131,1.089-0.54,0.233,0.054c-0.25,0.139-0.53,0.321-0.82,0.502      C7.462,2.768,7.189,2.987,6.909,3.142c0,0,0.772-0.882,0.793-0.858c-1.337,1.132-2.657,1.682-3.696,3.17L3.484,5.736      c0,0-0.252,0.344-0.504,0.688C2.734,6.771,2.529,7.146,2.529,7.146l0.028-0.21c0,0-0.275,0.435-0.549,0.869      C1.761,8.256,1.536,8.72,1.536,8.72c-0.463,1.014-0.332,1.241-0.343,1.443c-0.316,0.788-0.433,1.599-0.582,1.915l0.102-0.994      l-0.275,0.876c0.202-0.596-0.11,0.759-0.048,0.996c-0.085,0.503-0.143,0.843-0.185,1.092c-0.021,0.246-0.035,0.399-0.047,0.539      C0.13,14.851,0.094,15.018,0,15.661c0.078,0.664,0.071,1.406,0.139,1.986c0.079,0.579,0.15,1.002,0.252,1.021      c0.288,2.415,1.388,4.853,2.759,6.708l0.707,0.735c0.84,1.075,1.576,1.757,2.374,2.366c0.814,0.59,1.669,1.144,2.935,1.762      l-0.227-0.045c0,0,0.365,0.133,0.73,0.265c0.181,0.065,0.362,0.13,0.498,0.179c0.14,0.037,0.234,0.061,0.234,0.061      c0.484,0.208,0.904,0.371,1.296,0.497c0.392,0.085,0.767,0.166,1.152,0.25c0.376,0.095,0.776,0.119,1.223,0.19      c0.222,0.037,0.456,0.076,0.718,0.12c0.25,0.027,0.523,0.057,0.841,0.092c0.329,0.024,0.635,0.055,0.922,0.057      c0.286-0.016,0.549-0.031,0.8-0.046c0.495-0.031,0.914-0.084,1.27-0.19c0.714-0.18,1.192-0.37,1.563-0.62      c1.192-0.365,2.693-0.823,3.712-1.319l-0.623,0.403l0.896-0.323c1.367-0.894,1.542-0.825,3.083-2.301      c2.16-1.972,1.432-2.024,2.061-3.041c0,0,0.112-0.128,0.26-0.334c0.153-0.205,0.357-0.479,0.56-0.753      c0.216-0.269,0.364-0.578,0.506-0.795c0.133-0.222,0.222-0.37,0.222-0.37l-0.077,0.031c0.225-0.786,0.241-1.104,0.464-1.644      c0.117-0.268,0.197-0.62,0.343-1.125c0.167-0.501,0.267-1.186,0.406-2.127l-0.192,0.152c0.293-1.25,0.067-1.818-0.047-3.428      c-0.032-0.196-0.062-0.496-0.095-0.858c-0.021-0.365-0.075-0.787-0.18-1.22c-0.148-0.88-0.497-1.797-0.855-2.405      c-0.28-0.658-0.525-1.24-0.865-1.704c-0.309-0.482-0.624-0.895-0.98-1.258c-0.332-0.38-0.677-0.727-1.064-1.068      c-0.193-0.186-0.38-0.367-0.57-0.55c-0.21-0.176-0.424-0.364-0.644-0.569c-1.011-1.065-2.067-1.352-2.158-1.723l0.226,0.134      l-0.325-0.519l-0.155,0.137c-0.725-0.518-1.913-0.966-2.568-1.405c0,0-0.514-0.106-1.039-0.128      c-0.258-0.02-0.516-0.04-0.71-0.055c-0.191-0.019-0.321-0.016-0.321-0.016c0.492,0.076,1.021,0.244,1.55,0.403l-0.037-0.069      c0.501,0.164,1.732,0.565,2.232,0.937l-0.686-0.259c0.735,0.406,0.066,0.186-0.153,0.114c-1.527-0.664-1.159-0.363-2.386-0.631      c-0.265-0.107-0.791-0.234-0.584-0.249c-0.373-0.027-1.035-0.192-1.628-0.24c-0.594-0.037-1.104-0.05-1.137,0.047      c-0.057-0.014-0.093-0.022-0.147-0.035c0.124,0.18,0.391,0.367,0.744,0.556C17.581,1.627,18.021,1.814,18.491,2.071z"/>
			</g>
		</g>
	</g>
</g>
<g id="Official" display="none">
	<g display="inline">
		<path fill="#FFFFFF" d="M9.919,12.125c-0.61,0-1.106,0.495-1.106,1.106v4.422c0,0.61,0.495,1.106,1.106,1.106    c0.61,0,1.106-0.495,1.106-1.106V13.23C11.025,12.619,10.53,12.125,9.919,12.125z"/>
		<path fill="#FFFFFF" d="M22.081,12.125c-0.61,0-1.106,0.495-1.106,1.106v4.422c0,0.61,0.495,1.106,1.106,1.106    c0.61,0,1.106-0.495,1.106-1.106V13.23C23.186,12.619,22.691,12.125,22.081,12.125z"/>
		<path fill="#FFFFFF" d="M11.578,20.969h1.106v2.764c0,0.61,0.495,1.106,1.106,1.106c0.61,0,1.106-0.495,1.106-1.106v-2.764h2.211    v2.764c0,0.61,0.495,1.106,1.106,1.106c0.61,0,1.106-0.495,1.106-1.106v-2.764h1.106v-8.292h-8.844V20.969z"/>
		<path fill="#FFFFFF" d="M18.611,8.56l0.568-0.983c0.077-0.133,0.032-0.301-0.102-0.378c-0.132-0.077-0.301-0.032-0.378,0.102    l-0.553,0.959C17.51,7.905,16.779,7.702,16,7.702c-0.779,0-1.51,0.203-2.146,0.557L13.3,7.3c-0.077-0.132-0.245-0.177-0.378-0.101    c-0.132,0.076-0.177,0.245-0.101,0.378l0.568,0.984c-1.096,0.805-1.811,2.099-1.811,3.564h8.844    C20.422,10.66,19.707,9.365,18.611,8.56z M14.342,10.466c-0.306,0-0.553-0.247-0.553-0.553s0.247-0.553,0.553-0.553    c0.306,0,0.553,0.247,0.553,0.553S14.647,10.466,14.342,10.466z M17.658,10.466c-0.306,0-0.553-0.247-0.553-0.553    s0.247-0.553,0.553-0.553c0.306,0,0.553,0.247,0.553,0.553S17.964,10.466,17.658,10.466z"/>
	</g>
</g>
<g id="Layer_4_copy" display="none">
	<path display="inline" fill="#DDDDDD" d="M16,0C7.178,0,0,7.178,0,16c0,8.822,7.178,16,16,16s16-7.178,16-16   C32,7.178,24.822,0,16,0L16,0z"/>
	<path display="inline" d="M16,1.625C8.074,1.625,1.625,8.074,1.625,16c0,7.926,6.449,14.375,14.375,14.375S30.375,23.926,30.375,16   C30.375,8.074,23.926,1.625,16,1.625L16,1.625z"/>
	<path display="inline" opacity="0.22" fill="#FFFFFF" d="M16,1.625L16,1.625C8.074,1.625,1.625,8.074,1.625,16   c0,7.926,6.449,14.375,14.375,14.375V1.625z"/>
</g>
<g id="Official_copy_2" display="none">
	<g display="inline">
		<path fill="#FFFFFF" d="M9.919,12.125c-0.61,0-1.106,0.495-1.106,1.106v4.422c0,0.61,0.495,1.106,1.106,1.106    c0.61,0,1.106-0.495,1.106-1.106V13.23C11.025,12.619,10.53,12.125,9.919,12.125z"/>
		<path fill="#FFFFFF" d="M22.081,12.125c-0.61,0-1.106,0.495-1.106,1.106v4.422c0,0.61,0.495,1.106,1.106,1.106    c0.61,0,1.106-0.495,1.106-1.106V13.23C23.186,12.619,22.691,12.125,22.081,12.125z"/>
		<path fill="#FFFFFF" d="M11.578,20.969h1.106v2.764c0,0.61,0.495,1.106,1.106,1.106c0.61,0,1.106-0.495,1.106-1.106v-2.764h2.211    v2.764c0,0.61,0.495,1.106,1.106,1.106c0.61,0,1.106-0.495,1.106-1.106v-2.764h1.106v-8.292h-8.844V20.969z"/>
		<path fill="#FFFFFF" d="M18.611,8.56l0.568-0.983c0.077-0.133,0.032-0.301-0.102-0.378c-0.132-0.077-0.301-0.032-0.378,0.102    l-0.553,0.959C17.51,7.905,16.779,7.702,16,7.702c-0.779,0-1.51,0.203-2.146,0.557L13.3,7.3c-0.077-0.132-0.245-0.177-0.378-0.101    c-0.132,0.076-0.177,0.245-0.101,0.378l0.568,0.984c-1.096,0.805-1.811,2.099-1.811,3.564h8.844    C20.422,10.66,19.707,9.365,18.611,8.56z M14.342,10.466c-0.306,0-0.553-0.247-0.553-0.553s0.247-0.553,0.553-0.553    c0.306,0,0.553,0.247,0.553,0.553S14.647,10.466,14.342,10.466z M17.658,10.466c-0.306,0-0.553-0.247-0.553-0.553    s0.247-0.553,0.553-0.553c0.306,0,0.553,0.247,0.553,0.553S17.964,10.466,17.658,10.466z"/>
	</g>
</g>
<g id="Official_copy" display="none">
	<g display="inline">
		<linearGradient id="SVGID_1_" gradientUnits="userSpaceOnUse" x1="9.9194" y1="18.758" x2="9.9194" y2="12.1247">
			<stop offset="0" style="stop-color:#FF2D76"/>
			<stop offset="1" style="stop-color:#FB0000"/>
		</linearGradient>
		<path fill="url(#SVGID_1_)" d="M9.919,12.125c-0.61,0-1.106,0.495-1.106,1.106v4.422c0,0.61,0.495,1.106,1.106,1.106    c0.61,0,1.106-0.495,1.106-1.106V13.23C11.025,12.619,10.53,12.125,9.919,12.125z"/>
		<linearGradient id="SVGID_2_" gradientUnits="userSpaceOnUse" x1="22.0806" y1="18.758" x2="22.0806" y2="12.1247">
			<stop offset="0" style="stop-color:#FF2D76"/>
			<stop offset="1" style="stop-color:#FB0000"/>
		</linearGradient>
		<path fill="url(#SVGID_2_)" d="M22.081,12.125c-0.61,0-1.106,0.495-1.106,1.106v4.422c0,0.61,0.495,1.106,1.106,1.106    c0.61,0,1.106-0.495,1.106-1.106V13.23C23.186,12.619,22.691,12.125,22.081,12.125z"/>
		<linearGradient id="SVGID_3_" gradientUnits="userSpaceOnUse" x1="16" y1="24.8385" x2="16" y2="12.6774">
			<stop offset="0" style="stop-color:#FF2D76"/>
			<stop offset="1" style="stop-color:#FB0000"/>
		</linearGradient>
		<path fill="url(#SVGID_3_)" d="M11.578,20.969h1.106v2.764c0,0.61,0.495,1.106,1.106,1.106c0.61,0,1.106-0.495,1.106-1.106v-2.764    h2.211v2.764c0,0.61,0.495,1.106,1.106,1.106c0.61,0,1.106-0.495,1.106-1.106v-2.764h1.106v-8.292h-8.844V20.969z"/>
		<linearGradient id="SVGID_4_" gradientUnits="userSpaceOnUse" x1="16" y1="12.1247" x2="16" y2="7.1615">
			<stop offset="0" style="stop-color:#FF2D76"/>
			<stop offset="1" style="stop-color:#FB0000"/>
		</linearGradient>
		<path fill="url(#SVGID_4_)" d="M18.611,8.56l0.568-0.983c0.077-0.133,0.032-0.301-0.102-0.378    c-0.132-0.077-0.301-0.032-0.378,0.102l-0.553,0.959C17.51,7.905,16.779,7.702,16,7.702c-0.779,0-1.51,0.203-2.146,0.557L13.3,7.3    c-0.077-0.132-0.245-0.177-0.378-0.101c-0.132,0.076-0.177,0.245-0.101,0.378l0.568,0.984c-1.096,0.805-1.811,2.099-1.811,3.564    h8.844C20.422,10.66,19.707,9.365,18.611,8.56z M14.342,10.466c-0.306,0-0.553-0.247-0.553-0.553s0.247-0.553,0.553-0.553    c0.306,0,0.553,0.247,0.553,0.553S14.647,10.466,14.342,10.466z M17.658,10.466c-0.306,0-0.553-0.247-0.553-0.553    s0.247-0.553,0.553-0.553c0.306,0,0.553,0.247,0.553,0.553S17.964,10.466,17.658,10.466z"/>
	</g>
</g>
<g id="Full">
	<g>
		<linearGradient id="SVGID_5_" gradientUnits="userSpaceOnUse" x1="4.9927" y1="20.9927" x2="4.9927" y2="8.9846">
			<stop offset="0" style="stop-color:#FF2D76"/>
			<stop offset="1" style="stop-color:#FB0000"/>
		</linearGradient>
		<path fill="url(#SVGID_5_)" d="M4.993,8.985c-1.105,0-2.001,0.897-2.001,2.001v8.005c0,1.105,0.897,2.001,2.001,2.001    s2.001-0.897,2.001-2.001v-8.005C6.994,9.88,6.097,8.985,4.993,8.985z"/>
		<linearGradient id="SVGID_6_" gradientUnits="userSpaceOnUse" x1="27.0073" y1="20.9927" x2="27.0073" y2="8.9846">
			<stop offset="0" style="stop-color:#FF2D76"/>
			<stop offset="1" style="stop-color:#FB0000"/>
		</linearGradient>
		<path fill="url(#SVGID_6_)" d="M27.007,8.985c-1.105,0-2.001,0.897-2.001,2.001v8.005c0,1.105,0.897,2.001,2.001,2.001    c1.105,0,2.001-0.897,2.001-2.001v-8.005C29.009,9.88,28.112,8.985,27.007,8.985z"/>
		<linearGradient id="SVGID_7_" gradientUnits="userSpaceOnUse" x1="16" y1="32" x2="16" y2="9.9853">
			<stop offset="0" style="stop-color:#FF2D76"/>
			<stop offset="1" style="stop-color:#FB0000"/>
		</linearGradient>
		<path fill="url(#SVGID_7_)" d="M7.995,24.995h2.001v5.003c0,1.105,0.897,2.001,2.001,2.001s2.001-0.897,2.001-2.001v-5.003h4.003    v5.003c0,1.105,0.897,2.001,2.001,2.001s2.001-0.897,2.001-2.001v-5.003h2.001V9.985H7.995V24.995z"/>
		<linearGradient id="SVGID_8_" gradientUnits="userSpaceOnUse" x1="16" y1="8.9846" x2="16" y2="-1.818989e-12">
			<stop offset="0" style="stop-color:#FF2D76"/>
			<stop offset="1" style="stop-color:#FB0000"/>
		</linearGradient>
		<path fill="url(#SVGID_8_)" d="M20.726,2.532l1.028-1.78c0.139-0.24,0.057-0.545-0.184-0.684    c-0.238-0.139-0.545-0.057-0.683,0.184l-1.002,1.735C18.734,1.347,17.411,0.979,16,0.979c-1.41,0-2.733,0.367-3.885,1.009    l-1.003-1.737c-0.139-0.239-0.443-0.321-0.684-0.183c-0.238,0.138-0.32,0.443-0.183,0.683l1.029,1.781    C9.29,3.989,7.995,6.333,7.995,8.985h16.011C24.005,6.333,22.71,3.989,20.726,2.532z M12.998,5.983    c-0.553,0-1.001-0.447-1.001-1.001s0.447-1.001,1.001-1.001c0.553,0,1.001,0.447,1.001,1.001S13.551,5.983,12.998,5.983z     M19.002,5.983c-0.553,0-1.001-0.447-1.001-1.001s0.447-1.001,1.001-1.001c0.553,0,1.001,0.447,1.001,1.001    S19.555,5.983,19.002,5.983z"/>
	</g>
</g>

	<metadata>
		<rdf:RDF xmlns:rdf="http://www.w3.org/1999/02/22-rdf-syntax-ns#" xmlns:rdfs="http://www.w3.org/2000/01/rdf-schema#" xmlns:dc="http://purl.org/dc/elements/1.1/">
			<rdf:Description about="https://iconscout.com/legal#licenses" dc:title="Android Robot social media corporate logo" dc:description="Android Robot social media corporate logo" dc:publisher="Iconscout" dc:date="2017-01-06" dc:format="image/svg+xml" dc:language="en">
				<dc:creator>
					<rdf:Bag>
						<rdf:li>Alfredo Hernandez</rdf:li>
					</rdf:Bag>
				</dc:creator>
			</rdf:Description>
		</rdf:RDF>
    </metadata></svg>
