<?xml version="1.0" encoding="utf-8"?>
<svg xmlns="http://www.w3.org/2000/svg" xmlns:xlink="http://www.w3.org/1999/xlink" version="1.1" x="0px" y="0px" viewBox="0 0 32 32" enable-background="new 0 0 32 32" xml:space="preserve">
<g id="Layer_6" display="none">
</g>
<g id="Layer_4" display="none">
	<path display="inline" fill="#00D09C" d="M16,0C7.178,0,0,7.178,0,16c0,8.822,7.178,16,16,16s16-7.178,16-16   C32,7.178,24.822,0,16,0L16,0z"/>
	<path display="inline" d="M16,1.625C8.074,1.625,1.625,8.074,1.625,16c0,7.926,6.449,14.375,14.375,14.375S30.375,23.926,30.375,16   C30.375,8.074,23.926,1.625,16,1.625L16,1.625z"/>
	<path display="inline" opacity="0.22" fill="#FFFFFF" d="M16,1.625L16,1.625C8.074,1.625,1.625,8.074,1.625,16   c0,7.926,6.449,14.375,14.375,14.375V1.625z"/>
</g>
<g id="art_1" display="none">
	<g display="inline">
		<g>
			<path d="M16.482,0.567c-8.376,0-15.191,6.8-15.191,15.159c0,8.358,6.815,15.158,15.191,15.158s15.191-6.8,15.191-15.158     C31.673,7.367,24.859,0.567,16.482,0.567L16.482,0.567z"/>
			<g>
				<path fill="none" d="M16.482,0.567c-8.376,0-15.191,6.8-15.191,15.159c0,8.358,6.815,15.158,15.191,15.158      s15.191-6.8,15.191-15.158C31.673,7.367,24.859,0.567,16.482,0.567L16.482,0.567z"/>
				<g>
					<path fill="#FF0000" d="M18.491,2.071c0.737,0.035,1.401,0.17,2,0.228c1.476,0.615,2.579,1.054,3.671,1.629       c1.056,0.601,2.184,1.26,3.219,2.603c0.946,1.155,1.669,2.225,2.196,3.379c0.51,1.154,0.931,2.36,1.042,3.799       c0.194,0.208,0.33,0.67,0.366,1.282c0.087,0.61,0.011,1.361-0.054,2.144c-0.202,1.572-0.785,3.173-1.013,4.253       c-0.547,1.346-0.771,2.167-0.135,1.212c-1.012,1.815-0.96,1.207-1.913,2.634c0.015,0.009,0.195-0.581,0.195-0.581       c-0.354,0.435-0.883,0.785-1.337,1.352l-0.471,0.704c-0.472,0.342-0.799,0.579-1.12,0.812c-0.33,0.27-0.655,0.505-0.994,0.732       c-0.333,0.236-0.669,0.486-1.077,0.68c-0.401,0.205-0.833,0.438-1.372,0.574c1.412-0.354-0.577,0.338-0.375,0.443       c-0.336,0.083-1.665,0.325-1.229,0.167c-1.816,0.384-3.58,0.81-4.644,0.405c0,0-0.698,0.056-0.697,0.036       c-1.195-0.032-2.1-0.392-3.103-0.787l-0.179,0.056c-0.711-0.155-1.92-0.743-2.402-1.158c-1.615-0.967-3.578-2.358-4.869-3.913       c-0.566-0.815-0.686-1.069-0.907-1.237c-0.197-0.183-0.432-0.32-0.851-1.134c-0.248-0.525-0.522-1.267-0.788-1.955       c-0.208-0.705-0.385-1.366-0.371-1.727c0.386,1.564,0.733,1.684,1.314,3.236c-0.09-0.307,0.242,0.313,0.531,0.83       c0.314,0.505,0.618,0.885,0.298,0.227c-0.879-1.311-1.518-3.004-1.815-4.72c-0.17-0.858-0.201-1.721-0.257-2.55       c0.027-0.828,0.004-1.625,0.086-2.358c0.135,0.129,0.293-0.759,0.601-1.802c0.129-0.528,0.366-1.071,0.525-1.582       c0.2-0.495,0.409-0.926,0.534-1.221L3.207,8.73c0.295-0.472,0.546-0.871,0.836-1.335C4.388,6.963,4.691,6.394,5.26,5.735       c1.362-1.57,3.063-2.838,4.718-3.432c1.192-0.491,2.522-0.907,3.705-1.237c1.188-0.312,2.236-0.463,2.8-0.599       c-1.614-0.114-3.18,0.192-4.573,0.619C10.531,1.578,9.296,2.11,8.147,2.569c1.998-1.085,2.118-1.167,3.726-1.925       c0,0-0.23,0.045-0.458,0.103c-0.229,0.056-0.458,0.113-0.458,0.113l0.699-0.324c-0.411,0.012,0.54-0.375,0.403-0.437       c-0.03-0.092-2.678,0.957-2.653,1.013c1.415-0.571,0.55-0.021,0.212,0.271c0,0-0.328,0.147-0.657,0.294       c-0.321,0.161-0.63,0.347-0.63,0.347c0.315-0.131,1.089-0.54,0.233,0.054c-0.25,0.139-0.53,0.321-0.82,0.502       C7.462,2.768,7.189,2.987,6.909,3.142c0,0,0.772-0.882,0.793-0.858c-1.337,1.132-2.657,1.682-3.696,3.17L3.484,5.736       c0,0-0.252,0.344-0.504,0.688C2.734,6.771,2.529,7.146,2.529,7.146l0.028-0.21c0,0-0.275,0.435-0.549,0.869       C1.761,8.256,1.536,8.72,1.536,8.72c-0.463,1.014-0.332,1.241-0.343,1.443c-0.316,0.788-0.433,1.599-0.582,1.915l0.102-0.994       l-0.275,0.876c0.202-0.596-0.11,0.759-0.048,0.996c-0.085,0.503-0.143,0.843-0.185,1.092c-0.021,0.246-0.035,0.399-0.047,0.539       C0.13,14.851,0.094,15.018,0,15.661c0.078,0.664,0.071,1.406,0.139,1.986c0.079,0.579,0.15,1.002,0.252,1.021       c0.288,2.415,1.388,4.853,2.759,6.708l0.707,0.735c0.84,1.075,1.576,1.757,2.374,2.366c0.814,0.59,1.669,1.144,2.935,1.762       l-0.227-0.045c0,0,0.365,0.133,0.73,0.265c0.181,0.065,0.362,0.13,0.498,0.179c0.14,0.037,0.234,0.061,0.234,0.061       c0.484,0.208,0.904,0.371,1.296,0.497c0.392,0.085,0.767,0.166,1.152,0.25c0.376,0.095,0.776,0.119,1.223,0.19       c0.222,0.037,0.456,0.076,0.718,0.12c0.25,0.027,0.523,0.057,0.841,0.092c0.329,0.024,0.635,0.055,0.922,0.057       c0.286-0.016,0.549-0.031,0.8-0.046c0.495-0.031,0.914-0.084,1.27-0.19c0.715-0.18,1.192-0.37,1.563-0.62       c1.192-0.365,2.693-0.823,3.712-1.319l-0.623,0.403l0.896-0.323c1.367-0.894,1.542-0.825,3.083-2.301       c2.16-1.972,1.432-2.024,2.061-3.041c0,0,0.112-0.128,0.26-0.334c0.153-0.205,0.357-0.479,0.56-0.753       c0.216-0.269,0.364-0.578,0.506-0.795c0.133-0.222,0.222-0.37,0.222-0.37l-0.077,0.031c0.225-0.786,0.241-1.104,0.464-1.644       c0.117-0.268,0.197-0.62,0.343-1.125c0.167-0.501,0.267-1.186,0.406-2.127l-0.192,0.152c0.293-1.25,0.067-1.818-0.047-3.428       c-0.032-0.196-0.062-0.496-0.095-0.858c-0.021-0.365-0.075-0.787-0.18-1.22c-0.148-0.88-0.497-1.797-0.855-2.405       c-0.28-0.658-0.525-1.24-0.865-1.704c-0.309-0.482-0.624-0.895-0.98-1.258c-0.332-0.38-0.677-0.727-1.064-1.068       c-0.193-0.186-0.38-0.367-0.57-0.55c-0.21-0.176-0.424-0.364-0.644-0.569c-1.011-1.065-2.067-1.352-2.158-1.723l0.226,0.134       l-0.325-0.519l-0.155,0.137c-0.725-0.518-1.913-0.966-2.568-1.405c0,0-0.514-0.106-1.039-0.128       c-0.258-0.02-0.516-0.04-0.71-0.055c-0.191-0.019-0.321-0.016-0.321-0.016c0.492,0.076,1.021,0.244,1.55,0.403l-0.037-0.069       c0.501,0.164,1.732,0.565,2.232,0.937l-0.686-0.259c0.735,0.406,0.066,0.186-0.153,0.114c-1.527-0.664-1.159-0.363-2.386-0.631       c-0.265-0.107-0.791-0.234-0.584-0.249c-0.373-0.027-1.035-0.192-1.628-0.24c-0.594-0.037-1.104-0.05-1.137,0.047       c-0.057-0.014-0.093-0.022-0.147-0.035c0.124,0.18,0.391,0.367,0.744,0.556C17.581,1.627,18.021,1.814,18.491,2.071z"/>
				</g>
			</g>
		</g>
	</g>
</g>
<g id="art_1_copy" display="none">
	<g display="inline">
		<g>
			<path d="M16.482,0.567c-8.376,0-15.191,6.8-15.191,15.159c0,8.358,6.815,15.158,15.191,15.158s15.191-6.8,15.191-15.158     C31.673,7.367,24.859,0.567,16.482,0.567L16.482,0.567z"/>
			<g>
				<path fill="none" d="M16.482,0.567c-8.376,0-15.191,6.8-15.191,15.159c0,8.358,6.815,15.158,15.191,15.158      s15.191-6.8,15.191-15.158C31.673,7.367,24.859,0.567,16.482,0.567L16.482,0.567z"/>
				<g>
					<path fill="#999999" d="M18.491,2.071c0.737,0.035,1.401,0.17,2,0.228c1.476,0.615,2.579,1.054,3.671,1.629       c1.056,0.601,2.184,1.26,3.219,2.603c0.946,1.155,1.669,2.225,2.196,3.379c0.51,1.154,0.931,2.36,1.042,3.799       c0.194,0.208,0.33,0.67,0.366,1.282c0.087,0.61,0.011,1.361-0.054,2.144c-0.202,1.572-0.785,3.173-1.013,4.253       c-0.547,1.346-0.771,2.167-0.135,1.212c-1.012,1.815-0.96,1.207-1.913,2.634c0.015,0.009,0.195-0.581,0.195-0.581       c-0.354,0.435-0.883,0.785-1.337,1.352l-0.471,0.704c-0.472,0.342-0.799,0.579-1.12,0.812c-0.33,0.27-0.655,0.505-0.994,0.732       c-0.333,0.236-0.669,0.486-1.077,0.68c-0.401,0.205-0.833,0.438-1.372,0.574c1.412-0.354-0.577,0.338-0.375,0.443       c-0.336,0.083-1.665,0.325-1.229,0.167c-1.816,0.384-3.58,0.81-4.644,0.405c0,0-0.698,0.056-0.697,0.036       c-1.195-0.032-2.1-0.392-3.103-0.787l-0.179,0.056c-0.711-0.155-1.92-0.743-2.402-1.158c-1.615-0.967-3.578-2.358-4.869-3.913       c-0.566-0.815-0.686-1.069-0.907-1.237c-0.197-0.183-0.432-0.32-0.851-1.134c-0.248-0.525-0.522-1.267-0.788-1.955       c-0.208-0.705-0.385-1.366-0.371-1.727c0.386,1.564,0.733,1.684,1.314,3.236c-0.09-0.307,0.242,0.313,0.531,0.83       c0.314,0.505,0.618,0.885,0.298,0.227c-0.879-1.311-1.518-3.004-1.815-4.72c-0.17-0.858-0.201-1.721-0.257-2.55       c0.027-0.828,0.004-1.625,0.086-2.358c0.135,0.129,0.293-0.759,0.601-1.802c0.129-0.528,0.366-1.071,0.525-1.582       c0.2-0.495,0.409-0.926,0.534-1.221L3.207,8.73c0.295-0.472,0.546-0.871,0.836-1.335C4.388,6.963,4.691,6.394,5.26,5.735       c1.362-1.57,3.063-2.838,4.718-3.432c1.192-0.491,2.522-0.907,3.705-1.237c1.188-0.312,2.236-0.463,2.8-0.599       c-1.614-0.114-3.18,0.192-4.573,0.619C10.531,1.578,9.296,2.11,8.147,2.569c1.998-1.085,2.118-1.167,3.726-1.925       c0,0-0.23,0.045-0.458,0.103c-0.229,0.056-0.458,0.113-0.458,0.113l0.699-0.324c-0.411,0.012,0.54-0.375,0.403-0.437       c-0.03-0.092-2.678,0.957-2.653,1.013c1.415-0.571,0.55-0.021,0.212,0.271c0,0-0.328,0.147-0.657,0.294       c-0.321,0.161-0.63,0.347-0.63,0.347c0.315-0.131,1.089-0.54,0.233,0.054c-0.25,0.139-0.53,0.321-0.82,0.502       C7.462,2.768,7.189,2.987,6.909,3.142c0,0,0.772-0.882,0.793-0.858c-1.337,1.132-2.657,1.682-3.696,3.17L3.484,5.736       c0,0-0.252,0.344-0.504,0.688C2.734,6.771,2.529,7.146,2.529,7.146l0.028-0.21c0,0-0.275,0.435-0.549,0.869       C1.761,8.256,1.536,8.72,1.536,8.72c-0.463,1.014-0.332,1.241-0.343,1.443c-0.316,0.788-0.433,1.599-0.582,1.915l0.102-0.994       l-0.275,0.876c0.202-0.596-0.11,0.759-0.048,0.996c-0.085,0.503-0.143,0.843-0.185,1.092c-0.021,0.246-0.035,0.399-0.047,0.539       C0.13,14.851,0.094,15.018,0,15.661c0.078,0.664,0.071,1.406,0.139,1.986c0.079,0.579,0.15,1.002,0.252,1.021       c0.288,2.415,1.388,4.853,2.759,6.708l0.707,0.735c0.84,1.075,1.576,1.757,2.374,2.366c0.814,0.59,1.669,1.144,2.935,1.762       l-0.227-0.045c0,0,0.365,0.133,0.73,0.265c0.181,0.065,0.362,0.13,0.498,0.179c0.14,0.037,0.234,0.061,0.234,0.061       c0.484,0.208,0.904,0.371,1.296,0.497c0.392,0.085,0.767,0.166,1.152,0.25c0.376,0.095,0.776,0.119,1.223,0.19       c0.222,0.037,0.456,0.076,0.718,0.12c0.25,0.027,0.523,0.057,0.841,0.092c0.329,0.024,0.635,0.055,0.922,0.057       c0.286-0.016,0.549-0.031,0.8-0.046c0.495-0.031,0.914-0.084,1.27-0.19c0.715-0.18,1.192-0.37,1.563-0.62       c1.192-0.365,2.693-0.823,3.712-1.319l-0.623,0.403l0.896-0.323c1.367-0.894,1.542-0.825,3.083-2.301       c2.16-1.972,1.432-2.024,2.061-3.041c0,0,0.112-0.128,0.26-0.334c0.153-0.205,0.357-0.479,0.56-0.753       c0.216-0.269,0.364-0.578,0.506-0.795c0.133-0.222,0.222-0.37,0.222-0.37l-0.077,0.031c0.225-0.786,0.241-1.104,0.464-1.644       c0.117-0.268,0.197-0.62,0.343-1.125c0.167-0.501,0.267-1.186,0.406-2.127l-0.192,0.152c0.293-1.25,0.067-1.818-0.047-3.428       c-0.032-0.196-0.062-0.496-0.095-0.858c-0.021-0.365-0.075-0.787-0.18-1.22c-0.148-0.88-0.497-1.797-0.855-2.405       c-0.28-0.658-0.525-1.24-0.865-1.704c-0.309-0.482-0.624-0.895-0.98-1.258c-0.332-0.38-0.677-0.727-1.064-1.068       c-0.193-0.186-0.38-0.367-0.57-0.55c-0.21-0.176-0.424-0.364-0.644-0.569c-1.011-1.065-2.067-1.352-2.158-1.723l0.226,0.134       l-0.325-0.519l-0.155,0.137c-0.725-0.518-1.913-0.966-2.568-1.405c0,0-0.514-0.106-1.039-0.128       c-0.258-0.02-0.516-0.04-0.71-0.055c-0.191-0.019-0.321-0.016-0.321-0.016c0.492,0.076,1.021,0.244,1.55,0.403l-0.037-0.069       c0.501,0.164,1.732,0.565,2.232,0.937l-0.686-0.259c0.735,0.406,0.066,0.186-0.153,0.114c-1.527-0.664-1.159-0.363-2.386-0.631       c-0.265-0.107-0.791-0.234-0.584-0.249c-0.373-0.027-1.035-0.192-1.628-0.24c-0.594-0.037-1.104-0.05-1.137,0.047       c-0.057-0.014-0.093-0.022-0.147-0.035c0.124,0.18,0.391,0.367,0.744,0.556C17.581,1.627,18.021,1.814,18.491,2.071z"/>
				</g>
			</g>
		</g>
	</g>
</g>
<g id="Official" display="none">
	<path display="inline" fill="#FFFFFF" d="M21.976,11.084c-0.014,0.021-1.256,1.814-4.311,3.062c0.18,0.369,0.354,0.745,0.515,1.122   c0.057,0.135,0.113,0.268,0.167,0.401c2.659-0.335,5.278,0.228,5.39,0.251C23.718,14.086,23.061,12.402,21.976,11.084z    M18.818,16.89c1.015,2.789,1.427,5.061,1.506,5.528c1.737-1.172,2.972-3.034,3.316-5.191C23.481,17.175,21.316,16.49,18.818,16.89   z M19.021,23.125c-0.114-0.676-0.564-3.046-1.653-5.876c-0.017,0.006-0.034,0.011-0.052,0.017   c-4.566,1.591-6.057,4.799-6.073,4.834c1.314,1.022,2.962,1.638,4.757,1.638C17.071,23.739,18.092,23.52,19.021,23.125z    M17.069,12.993c2.92-1.094,4.022-2.772,4.041-2.801c-1.362-1.201-3.151-1.93-5.11-1.93c-0.629,0-1.239,0.076-1.824,0.217   C14.292,8.634,15.746,10.562,17.069,12.993z M16.84,15.966c-0.194-0.44-0.406-0.881-0.628-1.315   c-3.985,1.193-7.808,1.107-7.945,1.102C8.265,15.836,8.261,15.917,8.261,16c0,1.988,0.75,3.801,1.983,5.17   c-0.003-0.003,2.115-3.761,6.291-5.111C16.636,16.026,16.739,15.996,16.84,15.966z M24.877,14.176   c0.122,0.596,0.185,1.21,0.185,1.825c0,0.613-0.062,1.226-0.185,1.824c-0.12,0.583-0.297,1.156-0.528,1.703   c-0.226,0.537-0.507,1.056-0.836,1.539c-0.323,0.48-0.696,0.93-1.105,1.341c-0.41,0.408-0.862,0.781-1.341,1.106   c-0.484,0.326-1.003,0.607-1.54,0.835c-0.547,0.231-1.12,0.408-1.702,0.527c-0.598,0.123-1.212,0.186-1.825,0.186   c-0.615,0-1.229-0.062-1.825-0.186c-0.583-0.12-1.156-0.297-1.703-0.527c-0.537-0.228-1.056-0.509-1.54-0.835   c-0.479-0.325-0.93-0.698-1.34-1.106c-0.41-0.411-0.782-0.861-1.106-1.341c-0.327-0.483-0.608-1.002-0.836-1.539   c-0.232-0.547-0.409-1.12-0.529-1.703C7,17.227,6.938,16.614,6.938,16c0-0.615,0.062-1.229,0.184-1.825   c0.12-0.583,0.297-1.157,0.529-1.703c0.227-0.538,0.509-1.057,0.836-1.54c0.324-0.481,0.697-0.93,1.106-1.341   c0.409-0.409,0.86-0.78,1.34-1.105c0.484-0.328,1.003-0.609,1.54-0.837c0.547-0.232,1.12-0.409,1.703-0.528   C14.771,7,15.385,6.938,16,6.938c0.613,0,1.227,0.062,1.825,0.184c0.582,0.119,1.155,0.296,1.702,0.528   c0.537,0.228,1.055,0.509,1.54,0.837c0.479,0.325,0.931,0.696,1.341,1.105c0.409,0.411,0.782,0.86,1.105,1.341   c0.328,0.483,0.609,1.002,0.836,1.54C24.581,13.019,24.758,13.592,24.877,14.176z M15.572,13.46   c-1.34-2.38-2.771-4.322-2.874-4.459c-2.158,1.019-3.769,3.008-4.271,5.404C8.631,14.406,11.856,14.447,15.572,13.46z"/>
</g>
<g id="Layer_4_copy" display="none">
	<path display="inline" fill="#DDDDDD" d="M16,0C7.178,0,0,7.178,0,16c0,8.822,7.178,16,16,16s16-7.178,16-16   C32,7.178,24.822,0,16,0L16,0z"/>
	<path display="inline" d="M16,1.625C8.074,1.625,1.625,8.074,1.625,16c0,7.926,6.449,14.375,14.375,14.375S30.375,23.926,30.375,16   C30.375,8.074,23.926,1.625,16,1.625L16,1.625z"/>
	<path display="inline" opacity="0.22" fill="#FFFFFF" d="M16,1.625L16,1.625C8.074,1.625,1.625,8.074,1.625,16   c0,7.926,6.449,14.375,14.375,14.375V1.625z"/>
</g>
<g id="Official_copy_2" display="none">
	<path display="inline" fill="#FFFFFF" d="M21.976,11.084c-0.014,0.021-1.256,1.814-4.311,3.062c0.18,0.369,0.354,0.745,0.515,1.122   c0.057,0.135,0.113,0.268,0.167,0.401c2.659-0.335,5.278,0.228,5.39,0.251C23.718,14.086,23.061,12.402,21.976,11.084z    M18.818,16.89c1.015,2.789,1.427,5.061,1.506,5.528c1.737-1.172,2.972-3.034,3.316-5.191C23.481,17.175,21.316,16.49,18.818,16.89   z M19.021,23.125c-0.114-0.676-0.564-3.046-1.653-5.876c-0.017,0.006-0.034,0.011-0.052,0.017   c-4.566,1.591-6.057,4.799-6.073,4.834c1.314,1.022,2.962,1.638,4.757,1.638C17.071,23.739,18.092,23.52,19.021,23.125z    M17.069,12.993c2.92-1.094,4.022-2.772,4.041-2.801c-1.362-1.201-3.151-1.93-5.11-1.93c-0.629,0-1.239,0.076-1.824,0.217   C14.292,8.634,15.746,10.562,17.069,12.993z M16.84,15.966c-0.194-0.44-0.406-0.881-0.628-1.315   c-3.985,1.193-7.808,1.107-7.945,1.102C8.265,15.836,8.261,15.917,8.261,16c0,1.988,0.75,3.801,1.983,5.17   c-0.003-0.003,2.115-3.761,6.291-5.111C16.636,16.026,16.739,15.996,16.84,15.966z M24.877,14.176   c0.122,0.596,0.185,1.21,0.185,1.825c0,0.613-0.062,1.226-0.185,1.824c-0.12,0.583-0.297,1.156-0.528,1.703   c-0.226,0.537-0.507,1.056-0.836,1.539c-0.323,0.48-0.696,0.93-1.105,1.341c-0.41,0.408-0.862,0.781-1.341,1.106   c-0.484,0.326-1.003,0.607-1.54,0.835c-0.547,0.231-1.12,0.408-1.702,0.527c-0.598,0.123-1.212,0.186-1.825,0.186   c-0.615,0-1.229-0.062-1.825-0.186c-0.583-0.12-1.156-0.297-1.703-0.527c-0.537-0.228-1.056-0.509-1.54-0.835   c-0.479-0.325-0.93-0.698-1.34-1.106c-0.41-0.411-0.782-0.861-1.106-1.341c-0.327-0.483-0.608-1.002-0.836-1.539   c-0.232-0.547-0.409-1.12-0.529-1.703C7,17.227,6.938,16.614,6.938,16c0-0.615,0.062-1.229,0.184-1.825   c0.12-0.583,0.297-1.157,0.529-1.703c0.227-0.538,0.509-1.057,0.836-1.54c0.324-0.481,0.697-0.93,1.106-1.341   c0.409-0.409,0.86-0.78,1.34-1.105c0.484-0.328,1.003-0.609,1.54-0.837c0.547-0.232,1.12-0.409,1.703-0.528   C14.771,7,15.385,6.938,16,6.938c0.613,0,1.227,0.062,1.825,0.184c0.582,0.119,1.155,0.296,1.702,0.528   c0.537,0.228,1.055,0.509,1.54,0.837c0.479,0.325,0.931,0.696,1.341,1.105c0.409,0.411,0.782,0.86,1.105,1.341   c0.328,0.483,0.609,1.002,0.836,1.54C24.581,13.019,24.758,13.592,24.877,14.176z M15.572,13.46   c-1.34-2.38-2.771-4.322-2.874-4.459c-2.158,1.019-3.769,3.008-4.271,5.404C8.631,14.406,11.856,14.447,15.572,13.46z"/>
</g>
<g id="Official_copy" display="none">
	<linearGradient id="SVGID_1_" gradientUnits="userSpaceOnUse" x1="16" y1="25.0623" x2="16" y2="6.9377">
		<stop offset="0" style="stop-color:#FF2D76"/>
		<stop offset="1" style="stop-color:#FB0000"/>
	</linearGradient>
	<path display="inline" fill="url(#SVGID_1_)" d="M21.976,11.084c-0.014,0.021-1.256,1.814-4.311,3.062   c0.18,0.369,0.354,0.745,0.515,1.122c0.057,0.135,0.113,0.268,0.167,0.401c2.659-0.335,5.278,0.228,5.39,0.251   C23.718,14.086,23.061,12.402,21.976,11.084z M18.818,16.89c1.015,2.789,1.427,5.061,1.506,5.528   c1.737-1.172,2.972-3.034,3.316-5.191C23.481,17.175,21.316,16.49,18.818,16.89z M19.021,23.125   c-0.114-0.676-0.564-3.046-1.653-5.876c-0.017,0.006-0.034,0.011-0.052,0.017c-4.566,1.591-6.057,4.799-6.073,4.834   c1.314,1.022,2.962,1.638,4.757,1.638C17.071,23.739,18.092,23.52,19.021,23.125z M17.069,12.993   c2.92-1.094,4.022-2.772,4.041-2.801c-1.362-1.201-3.151-1.93-5.11-1.93c-0.629,0-1.239,0.076-1.824,0.217   C14.292,8.634,15.746,10.562,17.069,12.993z M16.84,15.966c-0.194-0.44-0.406-0.881-0.628-1.315   c-3.985,1.193-7.808,1.107-7.945,1.102C8.265,15.836,8.261,15.917,8.261,16c0,1.988,0.75,3.801,1.983,5.17   c-0.003-0.003,2.115-3.761,6.291-5.111C16.636,16.026,16.739,15.996,16.84,15.966z M24.877,14.176   c0.122,0.596,0.185,1.21,0.185,1.825c0,0.613-0.062,1.226-0.185,1.824c-0.12,0.583-0.297,1.156-0.528,1.703   c-0.226,0.537-0.507,1.056-0.836,1.539c-0.323,0.48-0.696,0.93-1.105,1.341c-0.41,0.408-0.862,0.781-1.341,1.106   c-0.484,0.326-1.003,0.607-1.54,0.835c-0.547,0.231-1.12,0.408-1.702,0.527c-0.598,0.123-1.212,0.186-1.825,0.186   c-0.615,0-1.229-0.062-1.825-0.186c-0.583-0.12-1.156-0.297-1.703-0.527c-0.537-0.228-1.056-0.509-1.54-0.835   c-0.479-0.325-0.93-0.698-1.34-1.106c-0.41-0.411-0.782-0.861-1.106-1.341c-0.327-0.483-0.608-1.002-0.836-1.539   c-0.232-0.547-0.409-1.12-0.529-1.703C7,17.227,6.938,16.614,6.938,16c0-0.615,0.062-1.229,0.184-1.825   c0.12-0.583,0.297-1.157,0.529-1.703c0.227-0.538,0.509-1.057,0.836-1.54c0.324-0.481,0.697-0.93,1.106-1.341   c0.409-0.409,0.86-0.78,1.34-1.105c0.484-0.328,1.003-0.609,1.54-0.837c0.547-0.232,1.12-0.409,1.703-0.528   C14.771,7,15.385,6.938,16,6.938c0.613,0,1.227,0.062,1.825,0.184c0.582,0.119,1.155,0.296,1.702,0.528   c0.537,0.228,1.055,0.509,1.54,0.837c0.479,0.325,0.931,0.696,1.341,1.105c0.409,0.411,0.782,0.86,1.105,1.341   c0.328,0.483,0.609,1.002,0.836,1.54C24.581,13.019,24.758,13.592,24.877,14.176z M15.572,13.46   c-1.34-2.38-2.771-4.322-2.874-4.459c-2.158,1.019-3.769,3.008-4.271,5.404C8.631,14.406,11.856,14.447,15.572,13.46z"/>
</g>
<g id="Full">
	<linearGradient id="SVGID_2_" gradientUnits="userSpaceOnUse" x1="16" y1="32" x2="16" y2="-9.094947e-13">
		<stop offset="0" style="stop-color:#FF2D76"/>
		<stop offset="1" style="stop-color:#FB0000"/>
	</linearGradient>
	<path fill="url(#SVGID_2_)" d="M26.551,7.32c-0.025,0.036-2.218,3.203-7.612,5.406c0.317,0.652,0.625,1.315,0.909,1.981   c0.101,0.239,0.2,0.473,0.295,0.708c4.694-0.591,9.318,0.402,9.516,0.444C29.627,12.62,28.467,9.648,26.551,7.32z M20.976,17.572   c1.792,4.925,2.52,8.936,2.659,9.759c3.067-2.07,5.247-5.357,5.855-9.165C29.208,18.075,25.386,16.865,20.976,17.572z    M21.333,28.58c-0.202-1.194-0.995-5.378-2.918-10.375c-0.031,0.011-0.061,0.02-0.092,0.031   c-8.061,2.809-10.694,8.473-10.722,8.535c2.319,1.804,5.229,2.893,8.398,2.893C17.892,29.663,19.694,29.277,21.333,28.58z    M17.888,10.69c5.155-1.932,7.101-4.895,7.135-4.945C22.617,3.625,19.459,2.338,16,2.338c-1.11,0-2.188,0.134-3.22,0.383   C12.985,2.995,15.551,6.4,17.888,10.69z M17.484,15.941c-0.343-0.777-0.717-1.555-1.108-2.322   C9.34,15.725,2.59,15.574,2.348,15.564C2.344,15.711,2.337,15.853,2.337,16c0,3.51,1.324,6.711,3.501,9.128   c-0.005-0.006,3.735-6.64,11.108-9.025C17.122,16.045,17.304,15.992,17.484,15.941z M31.673,12.779C31.888,13.831,32,14.915,32,16   c0,1.083-0.11,2.165-0.327,3.22c-0.211,1.03-0.524,2.041-0.933,3.008c-0.4,0.949-0.895,1.864-1.475,2.717   c-0.571,0.848-1.229,1.642-1.952,2.368c-0.725,0.721-1.521,1.378-2.367,1.953c-0.855,0.576-1.77,1.071-2.718,1.474   c-0.966,0.408-1.978,0.72-3.006,0.931C18.167,31.889,17.083,32,16,32c-1.085,0-2.169-0.11-3.222-0.329   c-1.029-0.211-2.041-0.524-3.007-0.931c-0.949-0.403-1.864-0.898-2.719-1.474c-0.846-0.574-1.642-1.232-2.365-1.953   c-0.724-0.726-1.381-1.52-1.953-2.368c-0.577-0.853-1.074-1.769-1.475-2.717c-0.409-0.966-0.723-1.978-0.935-3.008   C0.11,18.166,0,17.084,0,16c0-1.085,0.109-2.169,0.324-3.221c0.212-1.03,0.525-2.042,0.934-3.007   C1.66,8.822,2.156,7.907,2.734,7.053c0.571-0.849,1.23-1.642,1.953-2.368C5.41,3.964,6.206,3.308,7.052,2.735   c0.855-0.579,1.77-1.076,2.719-1.478c0.965-0.409,1.978-0.722,3.007-0.932C13.831,0.109,14.915,0,16,0   c1.083,0,2.167,0.109,3.222,0.325c1.028,0.21,2.039,0.523,3.006,0.932c0.949,0.402,1.863,0.899,2.718,1.478   c0.846,0.573,1.643,1.229,2.367,1.951c0.722,0.726,1.381,1.519,1.952,2.368c0.58,0.853,1.076,1.768,1.475,2.719   C31.15,10.737,31.463,11.749,31.673,12.779z M15.244,11.515c-2.365-4.202-4.892-7.63-5.074-7.873   c-3.811,1.799-6.654,5.311-7.541,9.542C2.989,13.186,8.683,13.258,15.244,11.515z"/>
</g>

	<metadata>
		<rdf:RDF xmlns:rdf="http://www.w3.org/1999/02/22-rdf-syntax-ns#" xmlns:rdfs="http://www.w3.org/2000/01/rdf-schema#" xmlns:dc="http://purl.org/dc/elements/1.1/">
			<rdf:Description about="https://iconscout.com/legal#licenses" dc:title="Dribbble social media corporate logo" dc:description="Dribbble social media corporate logo" dc:publisher="Iconscout" dc:date="2017-01-06" dc:format="image/svg+xml" dc:language="en">
				<dc:creator>
					<rdf:Bag>
						<rdf:li>Alfredo Hernandez</rdf:li>
					</rdf:Bag>
				</dc:creator>
			</rdf:Description>
		</rdf:RDF>
    </metadata></svg>
