<?xml version="1.0" encoding="utf-8"?>
<svg xmlns="http://www.w3.org/2000/svg" xmlns:xlink="http://www.w3.org/1999/xlink" version="1.1" x="0px" y="0px" viewBox="0 0 32 32" enable-background="new 0 0 32 32" xml:space="preserve">
<g id="Layer_6" display="none">
</g>
<g id="Layer_4" display="none">
	<path display="inline" fill="#00D09C" d="M16,0C7.178,0,0,7.178,0,16c0,8.822,7.178,16,16,16s16-7.178,16-16   C32,7.178,24.822,0,16,0L16,0z"/>
	<path display="inline" d="M16,1.625C8.074,1.625,1.625,8.074,1.625,16c0,7.926,6.449,14.375,14.375,14.375S30.375,23.926,30.375,16   C30.375,8.074,23.926,1.625,16,1.625L16,1.625z"/>
	<path display="inline" opacity="0.22" fill="#FFFFFF" d="M16,1.625L16,1.625C8.074,1.625,1.625,8.074,1.625,16   c0,7.926,6.449,14.375,14.375,14.375V1.625z"/>
</g>
<g id="art_1" display="none">
	<g display="inline">
		<g>
			<path d="M16.482,0.567c-8.376,0-15.191,6.8-15.191,15.159c0,8.358,6.815,15.158,15.191,15.158s15.191-6.8,15.191-15.158     C31.673,7.367,24.859,0.567,16.482,0.567L16.482,0.567z"/>
			<g>
				<path fill="none" d="M16.482,0.567c-8.376,0-15.191,6.8-15.191,15.159c0,8.358,6.815,15.158,15.191,15.158      s15.191-6.8,15.191-15.158C31.673,7.367,24.859,0.567,16.482,0.567L16.482,0.567z"/>
				<g>
					<path fill="#FF0000" d="M18.491,2.071c0.737,0.035,1.401,0.17,2,0.228c1.476,0.615,2.579,1.054,3.671,1.629       c1.056,0.601,2.184,1.26,3.219,2.603c0.946,1.155,1.669,2.225,2.196,3.379c0.51,1.154,0.931,2.36,1.042,3.799       c0.194,0.208,0.33,0.67,0.366,1.282c0.087,0.61,0.011,1.361-0.054,2.144c-0.202,1.572-0.785,3.173-1.013,4.253       c-0.547,1.346-0.771,2.167-0.135,1.212c-1.012,1.815-0.96,1.207-1.913,2.634c0.015,0.009,0.195-0.581,0.195-0.581       c-0.354,0.435-0.883,0.785-1.337,1.352l-0.471,0.704c-0.472,0.342-0.799,0.579-1.12,0.812c-0.33,0.27-0.655,0.505-0.994,0.732       c-0.333,0.236-0.669,0.486-1.077,0.68c-0.401,0.205-0.833,0.438-1.372,0.574c1.412-0.354-0.577,0.338-0.375,0.443       c-0.336,0.083-1.665,0.325-1.229,0.167c-1.816,0.384-3.58,0.81-4.644,0.405c0,0-0.698,0.056-0.697,0.036       c-1.195-0.032-2.1-0.392-3.103-0.787l-0.179,0.056c-0.711-0.155-1.92-0.743-2.402-1.158c-1.615-0.967-3.578-2.358-4.869-3.913       c-0.566-0.815-0.686-1.069-0.907-1.237c-0.197-0.183-0.432-0.32-0.851-1.134c-0.248-0.525-0.522-1.267-0.788-1.955       c-0.208-0.705-0.385-1.366-0.371-1.727c0.386,1.564,0.733,1.684,1.314,3.236c-0.09-0.307,0.242,0.313,0.531,0.83       c0.314,0.505,0.618,0.885,0.298,0.227c-0.879-1.311-1.518-3.004-1.815-4.72c-0.17-0.858-0.201-1.721-0.257-2.55       c0.027-0.828,0.004-1.625,0.086-2.358c0.135,0.129,0.293-0.759,0.601-1.802c0.129-0.528,0.366-1.071,0.525-1.582       c0.2-0.495,0.409-0.926,0.534-1.221L3.207,8.73c0.295-0.472,0.546-0.871,0.836-1.335C4.388,6.963,4.691,6.394,5.26,5.735       c1.362-1.57,3.063-2.838,4.718-3.432c1.192-0.491,2.522-0.907,3.705-1.237c1.188-0.312,2.236-0.463,2.8-0.599       c-1.614-0.114-3.18,0.192-4.573,0.619C10.531,1.578,9.296,2.11,8.147,2.569c1.998-1.085,2.118-1.167,3.726-1.925       c0,0-0.23,0.045-0.458,0.103c-0.229,0.056-0.458,0.113-0.458,0.113l0.699-0.324c-0.411,0.012,0.54-0.375,0.403-0.437       c-0.03-0.092-2.678,0.957-2.653,1.013c1.415-0.571,0.55-0.021,0.212,0.271c0,0-0.328,0.147-0.657,0.294       c-0.321,0.161-0.63,0.347-0.63,0.347c0.315-0.131,1.089-0.54,0.233,0.054c-0.25,0.139-0.53,0.321-0.82,0.502       C7.462,2.768,7.189,2.987,6.909,3.142c0,0,0.772-0.882,0.793-0.858c-1.337,1.132-2.657,1.682-3.696,3.17L3.484,5.736       c0,0-0.252,0.344-0.504,0.688C2.734,6.771,2.529,7.146,2.529,7.146l0.028-0.21c0,0-0.275,0.435-0.549,0.869       C1.761,8.256,1.536,8.72,1.536,8.72c-0.463,1.014-0.332,1.241-0.343,1.443c-0.316,0.788-0.433,1.599-0.582,1.915l0.102-0.994       l-0.275,0.876c0.202-0.596-0.11,0.759-0.048,0.996c-0.085,0.503-0.143,0.843-0.185,1.092c-0.021,0.246-0.035,0.399-0.047,0.539       C0.13,14.851,0.094,15.018,0,15.661c0.078,0.664,0.071,1.406,0.139,1.986c0.079,0.579,0.15,1.002,0.252,1.021       c0.288,2.415,1.388,4.853,2.759,6.708l0.707,0.735c0.84,1.075,1.576,1.757,2.374,2.366c0.814,0.59,1.669,1.144,2.935,1.762       l-0.227-0.045c0,0,0.365,0.133,0.73,0.265c0.181,0.065,0.362,0.13,0.498,0.179c0.14,0.037,0.234,0.061,0.234,0.061       c0.484,0.208,0.904,0.371,1.296,0.497c0.392,0.085,0.767,0.166,1.152,0.25c0.376,0.095,0.776,0.119,1.223,0.19       c0.222,0.037,0.456,0.076,0.718,0.12c0.25,0.027,0.523,0.057,0.841,0.092c0.329,0.024,0.635,0.055,0.922,0.057       c0.286-0.016,0.549-0.031,0.8-0.046c0.495-0.031,0.914-0.084,1.27-0.19c0.715-0.18,1.192-0.37,1.563-0.62       c1.192-0.365,2.693-0.823,3.712-1.319l-0.623,0.403l0.896-0.323c1.367-0.894,1.542-0.825,3.083-2.301       c2.16-1.972,1.432-2.024,2.061-3.041c0,0,0.112-0.128,0.26-0.334c0.153-0.205,0.357-0.479,0.56-0.753       c0.216-0.269,0.364-0.578,0.506-0.795c0.133-0.222,0.222-0.37,0.222-0.37l-0.077,0.031c0.225-0.786,0.241-1.104,0.464-1.644       c0.117-0.268,0.197-0.62,0.343-1.125c0.167-0.501,0.267-1.186,0.406-2.127l-0.192,0.152c0.293-1.25,0.067-1.818-0.047-3.428       c-0.032-0.196-0.062-0.496-0.095-0.858c-0.021-0.365-0.075-0.787-0.18-1.22c-0.148-0.88-0.497-1.797-0.855-2.405       c-0.28-0.658-0.525-1.24-0.865-1.704c-0.309-0.482-0.624-0.895-0.98-1.258c-0.332-0.38-0.677-0.727-1.064-1.068       c-0.193-0.186-0.38-0.367-0.57-0.55c-0.21-0.176-0.424-0.364-0.644-0.569c-1.011-1.065-2.067-1.352-2.158-1.723l0.226,0.134       l-0.325-0.519l-0.155,0.137c-0.725-0.518-1.913-0.966-2.568-1.405c0,0-0.514-0.106-1.039-0.128       c-0.258-0.02-0.516-0.04-0.71-0.055c-0.191-0.019-0.321-0.016-0.321-0.016c0.492,0.076,1.021,0.244,1.55,0.403l-0.037-0.069       c0.501,0.164,1.732,0.565,2.232,0.937l-0.686-0.259c0.735,0.406,0.066,0.186-0.153,0.114c-1.527-0.664-1.159-0.363-2.386-0.631       c-0.265-0.107-0.791-0.234-0.584-0.249c-0.373-0.027-1.035-0.192-1.628-0.24c-0.594-0.037-1.104-0.05-1.137,0.047       c-0.057-0.014-0.093-0.022-0.147-0.035c0.124,0.18,0.391,0.367,0.744,0.556C17.581,1.627,18.021,1.814,18.491,2.071z"/>
				</g>
			</g>
		</g>
	</g>
</g>
<g id="art_1_copy" display="none">
	<g display="inline">
		<g>
			<path d="M16.482,0.567c-8.376,0-15.191,6.8-15.191,15.159c0,8.358,6.815,15.158,15.191,15.158s15.191-6.8,15.191-15.158     C31.673,7.367,24.859,0.567,16.482,0.567L16.482,0.567z"/>
			<g>
				<path fill="none" d="M16.482,0.567c-8.376,0-15.191,6.8-15.191,15.159c0,8.358,6.815,15.158,15.191,15.158      s15.191-6.8,15.191-15.158C31.673,7.367,24.859,0.567,16.482,0.567L16.482,0.567z"/>
				<g>
					<path fill="#999999" d="M18.491,2.071c0.737,0.035,1.401,0.17,2,0.228c1.476,0.615,2.579,1.054,3.671,1.629       c1.056,0.601,2.184,1.26,3.219,2.603c0.946,1.155,1.669,2.225,2.196,3.379c0.51,1.154,0.931,2.36,1.042,3.799       c0.194,0.208,0.33,0.67,0.366,1.282c0.087,0.61,0.011,1.361-0.054,2.144c-0.202,1.572-0.785,3.173-1.013,4.253       c-0.547,1.346-0.771,2.167-0.135,1.212c-1.012,1.815-0.96,1.207-1.913,2.634c0.015,0.009,0.195-0.581,0.195-0.581       c-0.354,0.435-0.883,0.785-1.337,1.352l-0.471,0.704c-0.472,0.342-0.799,0.579-1.12,0.812c-0.33,0.27-0.655,0.505-0.994,0.732       c-0.333,0.236-0.669,0.486-1.077,0.68c-0.401,0.205-0.833,0.438-1.372,0.574c1.412-0.354-0.577,0.338-0.375,0.443       c-0.336,0.083-1.665,0.325-1.229,0.167c-1.816,0.384-3.58,0.81-4.644,0.405c0,0-0.698,0.056-0.697,0.036       c-1.195-0.032-2.1-0.392-3.103-0.787l-0.179,0.056c-0.711-0.155-1.92-0.743-2.402-1.158c-1.615-0.967-3.578-2.358-4.869-3.913       c-0.566-0.815-0.686-1.069-0.907-1.237c-0.197-0.183-0.432-0.32-0.851-1.134c-0.248-0.525-0.522-1.267-0.788-1.955       c-0.208-0.705-0.385-1.366-0.371-1.727c0.386,1.564,0.733,1.684,1.314,3.236c-0.09-0.307,0.242,0.313,0.531,0.83       c0.314,0.505,0.618,0.885,0.298,0.227c-0.879-1.311-1.518-3.004-1.815-4.72c-0.17-0.858-0.201-1.721-0.257-2.55       c0.027-0.828,0.004-1.625,0.086-2.358c0.135,0.129,0.293-0.759,0.601-1.802c0.129-0.528,0.366-1.071,0.525-1.582       c0.2-0.495,0.409-0.926,0.534-1.221L3.207,8.73c0.295-0.472,0.546-0.871,0.836-1.335C4.388,6.963,4.691,6.394,5.26,5.735       c1.362-1.57,3.063-2.838,4.718-3.432c1.192-0.491,2.522-0.907,3.705-1.237c1.188-0.312,2.236-0.463,2.8-0.599       c-1.614-0.114-3.18,0.192-4.573,0.619C10.531,1.578,9.296,2.11,8.147,2.569c1.998-1.085,2.118-1.167,3.726-1.925       c0,0-0.23,0.045-0.458,0.103c-0.229,0.056-0.458,0.113-0.458,0.113l0.699-0.324c-0.411,0.012,0.54-0.375,0.403-0.437       c-0.03-0.092-2.678,0.957-2.653,1.013c1.415-0.571,0.55-0.021,0.212,0.271c0,0-0.328,0.147-0.657,0.294       c-0.321,0.161-0.63,0.347-0.63,0.347c0.315-0.131,1.089-0.54,0.233,0.054c-0.25,0.139-0.53,0.321-0.82,0.502       C7.462,2.768,7.189,2.987,6.909,3.142c0,0,0.772-0.882,0.793-0.858c-1.337,1.132-2.657,1.682-3.696,3.17L3.484,5.736       c0,0-0.252,0.344-0.504,0.688C2.734,6.771,2.529,7.146,2.529,7.146l0.028-0.21c0,0-0.275,0.435-0.549,0.869       C1.761,8.256,1.536,8.72,1.536,8.72c-0.463,1.014-0.332,1.241-0.343,1.443c-0.316,0.788-0.433,1.599-0.582,1.915l0.102-0.994       l-0.275,0.876c0.202-0.596-0.11,0.759-0.048,0.996c-0.085,0.503-0.143,0.843-0.185,1.092c-0.021,0.246-0.035,0.399-0.047,0.539       C0.13,14.851,0.094,15.018,0,15.661c0.078,0.664,0.071,1.406,0.139,1.986c0.079,0.579,0.15,1.002,0.252,1.021       c0.288,2.415,1.388,4.853,2.759,6.708l0.707,0.735c0.84,1.075,1.576,1.757,2.374,2.366c0.814,0.59,1.669,1.144,2.935,1.762       l-0.227-0.045c0,0,0.365,0.133,0.73,0.265c0.181,0.065,0.362,0.13,0.498,0.179c0.14,0.037,0.234,0.061,0.234,0.061       c0.484,0.208,0.904,0.371,1.296,0.497c0.392,0.085,0.767,0.166,1.152,0.25c0.376,0.095,0.776,0.119,1.223,0.19       c0.222,0.037,0.456,0.076,0.718,0.12c0.25,0.027,0.523,0.057,0.841,0.092c0.329,0.024,0.635,0.055,0.922,0.057       c0.286-0.016,0.549-0.031,0.8-0.046c0.495-0.031,0.914-0.084,1.27-0.19c0.715-0.18,1.192-0.37,1.563-0.62       c1.192-0.365,2.693-0.823,3.712-1.319l-0.623,0.403l0.896-0.323c1.367-0.894,1.542-0.825,3.083-2.301       c2.16-1.972,1.432-2.024,2.061-3.041c0,0,0.112-0.128,0.26-0.334c0.153-0.205,0.357-0.479,0.56-0.753       c0.216-0.269,0.364-0.578,0.506-0.795c0.133-0.222,0.222-0.37,0.222-0.37l-0.077,0.031c0.225-0.786,0.241-1.104,0.464-1.644       c0.117-0.268,0.197-0.62,0.343-1.125c0.167-0.501,0.267-1.186,0.406-2.127l-0.192,0.152c0.293-1.25,0.067-1.818-0.047-3.428       c-0.032-0.196-0.062-0.496-0.095-0.858c-0.021-0.365-0.075-0.787-0.18-1.22c-0.148-0.88-0.497-1.797-0.855-2.405       c-0.28-0.658-0.525-1.24-0.865-1.704c-0.309-0.482-0.624-0.895-0.98-1.258c-0.332-0.38-0.677-0.727-1.064-1.068       c-0.193-0.186-0.38-0.367-0.57-0.55c-0.21-0.176-0.424-0.364-0.644-0.569c-1.011-1.065-2.067-1.352-2.158-1.723l0.226,0.134       l-0.325-0.519l-0.155,0.137c-0.725-0.518-1.913-0.966-2.568-1.405c0,0-0.514-0.106-1.039-0.128       c-0.258-0.02-0.516-0.04-0.71-0.055c-0.191-0.019-0.321-0.016-0.321-0.016c0.492,0.076,1.021,0.244,1.55,0.403l-0.037-0.069       c0.501,0.164,1.732,0.565,2.232,0.937l-0.686-0.259c0.735,0.406,0.066,0.186-0.153,0.114c-1.527-0.664-1.159-0.363-2.386-0.631       c-0.265-0.107-0.791-0.234-0.584-0.249c-0.373-0.027-1.035-0.192-1.628-0.24c-0.594-0.037-1.104-0.05-1.137,0.047       c-0.057-0.014-0.093-0.022-0.147-0.035c0.124,0.18,0.391,0.367,0.744,0.556C17.581,1.627,18.021,1.814,18.491,2.071z"/>
				</g>
			</g>
		</g>
	</g>
</g>
<g id="Official" display="none">
	<path display="inline" fill="#FFFFFF" d="M13.507,18.612c-0.798,0-1.447-0.649-1.447-1.446c0-0.797,0.649-1.446,1.447-1.446   c0.797,0,1.446,0.649,1.446,1.446C14.952,17.964,14.304,18.612,13.507,18.612z M23.972,17.604c0.022,0.165,0.033,0.328,0.033,0.487   c0,3.007-3.598,5.454-8.02,5.454s-8.02-2.447-8.02-5.454c0-0.164,0.012-0.334,0.036-0.507C7.434,17.165,7.1,16.51,7.1,15.805   c0-1.223,0.995-2.217,2.217-2.217c0.477,0,0.941,0.155,1.322,0.439c1.375-0.836,3.128-1.323,4.97-1.381l1.413-4.014l3.385,0.809   c0.319-0.604,0.942-0.985,1.635-0.985c1.021,0,1.851,0.83,1.851,1.851c0,1.02-0.83,1.851-1.851,1.851   c-0.96,0-1.753-0.736-1.842-1.674l-2.494-0.596l-0.976,2.775c1.712,0.108,3.335,0.591,4.618,1.375   c0.384-0.291,0.852-0.449,1.335-0.449c1.223,0,2.217,0.995,2.217,2.217C24.9,16.524,24.556,17.187,23.972,17.604z M8.162,15.805   c0,0.222,0.065,0.438,0.185,0.622c0.292-0.619,0.75-1.203,1.345-1.715c-0.119-0.041-0.246-0.062-0.374-0.062   C8.68,14.649,8.162,15.168,8.162,15.805z M22.942,18.091c0-2.421-3.121-4.391-6.957-4.391s-6.957,1.97-6.957,4.391   c0,2.421,3.121,4.391,6.957,4.391C19.821,22.482,22.942,20.512,22.942,18.091z M22.288,14.719c0.599,0.518,1.058,1.108,1.348,1.735   c0.131-0.19,0.202-0.416,0.202-0.649c0-0.637-0.518-1.155-1.155-1.155C22.546,14.649,22.413,14.673,22.288,14.719z M21.254,10.306   c0,0.435,0.354,0.788,0.788,0.788s0.788-0.354,0.788-0.788c0-0.435-0.354-0.788-0.788-0.788S21.254,9.871,21.254,10.306z    M18.655,19.744c-0.144,0-0.279,0.057-0.376,0.155c-0.029,0.028-0.723,0.682-2.309,0.682c-1.566,0-2.197-0.654-2.199-0.656   c-0.101-0.116-0.247-0.182-0.401-0.182c-0.126,0-0.249,0.045-0.345,0.127c-0.108,0.092-0.173,0.221-0.184,0.362   c-0.011,0.142,0.034,0.279,0.126,0.387c0.025,0.029,0.256,0.291,0.746,0.541c0.628,0.321,1.388,0.484,2.257,0.484   c0.863,0,1.632-0.16,2.284-0.475c0.505-0.244,0.758-0.499,0.785-0.528c0.2-0.209,0.193-0.544-0.014-0.747   C18.926,19.797,18.794,19.744,18.655,19.744z M18.638,15.72c-0.798,0-1.447,0.649-1.447,1.446c0,0.798,0.649,1.446,1.447,1.446   c0.797,0,1.446-0.649,1.446-1.446C20.084,16.369,19.436,15.72,18.638,15.72z"/>
</g>
<g id="Layer_4_copy" display="none">
	<path display="inline" fill="#DDDDDD" d="M16,0C7.178,0,0,7.178,0,16c0,8.822,7.178,16,16,16s16-7.178,16-16   C32,7.178,24.822,0,16,0L16,0z"/>
	<path display="inline" d="M16,1.625C8.074,1.625,1.625,8.074,1.625,16c0,7.926,6.449,14.375,14.375,14.375S30.375,23.926,30.375,16   C30.375,8.074,23.926,1.625,16,1.625L16,1.625z"/>
	<path display="inline" opacity="0.22" fill="#FFFFFF" d="M16,1.625L16,1.625C8.074,1.625,1.625,8.074,1.625,16   c0,7.926,6.449,14.375,14.375,14.375V1.625z"/>
</g>
<g id="Official_copy_2" display="none">
	<path display="inline" fill="#FFFFFF" d="M13.507,18.612c-0.798,0-1.447-0.649-1.447-1.446c0-0.797,0.649-1.446,1.447-1.446   c0.797,0,1.446,0.649,1.446,1.446C14.952,17.964,14.304,18.612,13.507,18.612z M23.972,17.604c0.022,0.165,0.033,0.328,0.033,0.487   c0,3.007-3.598,5.454-8.02,5.454s-8.02-2.447-8.02-5.454c0-0.164,0.012-0.334,0.036-0.507C7.434,17.165,7.1,16.51,7.1,15.805   c0-1.223,0.995-2.217,2.217-2.217c0.477,0,0.941,0.155,1.322,0.439c1.375-0.836,3.128-1.323,4.97-1.381l1.413-4.014l3.385,0.809   c0.319-0.604,0.942-0.985,1.635-0.985c1.021,0,1.851,0.83,1.851,1.851c0,1.02-0.83,1.851-1.851,1.851   c-0.96,0-1.753-0.736-1.842-1.674l-2.494-0.596l-0.976,2.775c1.712,0.108,3.335,0.591,4.618,1.375   c0.384-0.291,0.852-0.449,1.335-0.449c1.223,0,2.217,0.995,2.217,2.217C24.9,16.524,24.556,17.187,23.972,17.604z M8.162,15.805   c0,0.222,0.065,0.438,0.185,0.622c0.292-0.619,0.75-1.203,1.345-1.715c-0.119-0.041-0.246-0.062-0.374-0.062   C8.68,14.649,8.162,15.168,8.162,15.805z M22.942,18.091c0-2.421-3.121-4.391-6.957-4.391s-6.957,1.97-6.957,4.391   c0,2.421,3.121,4.391,6.957,4.391C19.821,22.482,22.942,20.512,22.942,18.091z M22.288,14.719c0.599,0.518,1.058,1.108,1.348,1.735   c0.131-0.19,0.202-0.416,0.202-0.649c0-0.637-0.518-1.155-1.155-1.155C22.546,14.649,22.413,14.673,22.288,14.719z M21.254,10.306   c0,0.435,0.354,0.788,0.788,0.788s0.788-0.354,0.788-0.788c0-0.435-0.354-0.788-0.788-0.788S21.254,9.871,21.254,10.306z    M18.655,19.744c-0.144,0-0.279,0.057-0.376,0.155c-0.029,0.028-0.723,0.682-2.309,0.682c-1.566,0-2.197-0.654-2.199-0.656   c-0.101-0.116-0.247-0.182-0.401-0.182c-0.126,0-0.249,0.045-0.345,0.127c-0.108,0.092-0.173,0.221-0.184,0.362   c-0.011,0.142,0.034,0.279,0.126,0.387c0.025,0.029,0.256,0.291,0.746,0.541c0.628,0.321,1.388,0.484,2.257,0.484   c0.863,0,1.632-0.16,2.284-0.475c0.505-0.244,0.758-0.499,0.785-0.528c0.2-0.209,0.193-0.544-0.014-0.747   C18.926,19.797,18.794,19.744,18.655,19.744z M18.638,15.72c-0.798,0-1.447,0.649-1.447,1.446c0,0.798,0.649,1.446,1.447,1.446   c0.797,0,1.446-0.649,1.446-1.446C20.084,16.369,19.436,15.72,18.638,15.72z"/>
</g>
<g id="Official_copy" display="none">
	<linearGradient id="SVGID_1_" gradientUnits="userSpaceOnUse" x1="16" y1="23.5448" x2="16" y2="8.4552">
		<stop offset="0" style="stop-color:#FF2D76"/>
		<stop offset="1" style="stop-color:#FB0000"/>
	</linearGradient>
	<path display="inline" fill="url(#SVGID_1_)" d="M13.507,18.612c-0.798,0-1.447-0.649-1.447-1.446c0-0.797,0.649-1.446,1.447-1.446   c0.797,0,1.446,0.649,1.446,1.446C14.952,17.964,14.304,18.612,13.507,18.612z M23.972,17.604c0.022,0.165,0.033,0.328,0.033,0.487   c0,3.007-3.598,5.454-8.02,5.454s-8.02-2.447-8.02-5.454c0-0.164,0.012-0.334,0.036-0.507C7.434,17.165,7.1,16.51,7.1,15.805   c0-1.223,0.995-2.217,2.217-2.217c0.477,0,0.941,0.155,1.322,0.439c1.375-0.836,3.128-1.323,4.97-1.381l1.413-4.014l3.385,0.809   c0.319-0.604,0.942-0.985,1.635-0.985c1.021,0,1.851,0.83,1.851,1.851c0,1.02-0.83,1.851-1.851,1.851   c-0.96,0-1.753-0.736-1.842-1.674l-2.494-0.596l-0.976,2.775c1.712,0.108,3.335,0.591,4.618,1.375   c0.384-0.291,0.852-0.449,1.335-0.449c1.223,0,2.217,0.995,2.217,2.217C24.9,16.524,24.556,17.187,23.972,17.604z M8.162,15.805   c0,0.222,0.065,0.438,0.185,0.622c0.292-0.619,0.75-1.203,1.345-1.715c-0.119-0.041-0.246-0.062-0.374-0.062   C8.68,14.649,8.162,15.168,8.162,15.805z M22.942,18.091c0-2.421-3.121-4.391-6.957-4.391s-6.957,1.97-6.957,4.391   c0,2.421,3.121,4.391,6.957,4.391C19.821,22.482,22.942,20.512,22.942,18.091z M22.288,14.719c0.599,0.518,1.058,1.108,1.348,1.735   c0.131-0.19,0.202-0.416,0.202-0.649c0-0.637-0.518-1.155-1.155-1.155C22.546,14.649,22.413,14.673,22.288,14.719z M21.254,10.306   c0,0.435,0.354,0.788,0.788,0.788s0.788-0.354,0.788-0.788c0-0.435-0.354-0.788-0.788-0.788S21.254,9.871,21.254,10.306z    M18.655,19.744c-0.144,0-0.279,0.057-0.376,0.155c-0.029,0.028-0.723,0.682-2.309,0.682c-1.566,0-2.197-0.654-2.199-0.656   c-0.101-0.116-0.247-0.182-0.401-0.182c-0.126,0-0.249,0.045-0.345,0.127c-0.108,0.092-0.173,0.221-0.184,0.362   c-0.011,0.142,0.034,0.279,0.126,0.387c0.025,0.029,0.256,0.291,0.746,0.541c0.628,0.321,1.388,0.484,2.257,0.484   c0.863,0,1.632-0.16,2.284-0.475c0.505-0.244,0.758-0.499,0.785-0.528c0.2-0.209,0.193-0.544-0.014-0.747   C18.926,19.797,18.794,19.744,18.655,19.744z M18.638,15.72c-0.798,0-1.447,0.649-1.447,1.446c0,0.798,0.649,1.446,1.447,1.446   c0.797,0,1.446-0.649,1.446-1.446C20.084,16.369,19.436,15.72,18.638,15.72z"/>
</g>
<g id="Full">
	<linearGradient id="SVGID_2_" gradientUnits="userSpaceOnUse" x1="16" y1="29.5636" x2="16" y2="2.4364">
		<stop offset="0" style="stop-color:#FF2D76"/>
		<stop offset="1" style="stop-color:#FB0000"/>
	</linearGradient>
	<path fill="url(#SVGID_2_)" d="M11.517,20.696c-1.434,0-2.601-1.166-2.601-2.6c0-1.433,1.167-2.599,2.601-2.599   c1.433,0,2.599,1.166,2.599,2.599C14.117,19.53,12.951,20.696,11.517,20.696z M30.331,18.884c0.039,0.297,0.059,0.59,0.059,0.875   c0,5.406-6.468,9.804-14.417,9.804S1.556,25.165,1.556,19.759c0-0.295,0.022-0.601,0.065-0.912C0.601,18.095,0,16.917,0,15.649   c0-2.198,1.788-3.986,3.986-3.986c0.858,0,1.691,0.279,2.377,0.79c2.471-1.503,5.623-2.379,8.935-2.483l2.54-7.217l6.086,1.455   c0.574-1.086,1.694-1.771,2.939-1.771c1.835,0,3.327,1.493,3.327,3.327c0,1.835-1.493,3.327-3.327,3.327   c-1.725,0-3.151-1.324-3.312-3.009L19.067,5.01l-1.755,4.988c3.077,0.194,5.996,1.063,8.301,2.472   c0.69-0.523,1.532-0.808,2.401-0.808c2.198,0,3.986,1.788,3.986,3.986C32,16.943,31.381,18.134,30.331,18.884z M1.91,15.649   c0,0.399,0.118,0.787,0.332,1.119c0.525-1.113,1.348-2.163,2.417-3.084c-0.215-0.074-0.441-0.112-0.673-0.112   C2.841,13.572,1.91,14.504,1.91,15.649z M28.48,19.759c0-4.353-5.611-7.895-12.507-7.895S3.466,15.406,3.466,19.759   c0,4.353,5.611,7.894,12.507,7.894C22.87,27.653,28.48,24.112,28.48,19.759z M27.303,13.698c1.076,0.931,1.901,1.992,2.423,3.118   c0.235-0.342,0.364-0.747,0.364-1.167c0-1.145-0.931-2.077-2.076-2.077C27.769,13.572,27.529,13.615,27.303,13.698z M25.445,5.764   c0,0.781,0.636,1.417,1.417,1.417c0.782,0,1.417-0.636,1.417-1.417c0-0.782-0.636-1.417-1.417-1.417   C26.081,4.346,25.445,4.982,25.445,5.764z M20.773,22.73c-0.259,0-0.501,0.102-0.675,0.279c-0.052,0.05-1.3,1.227-4.15,1.227   c-2.815,0-3.95-1.176-3.953-1.18c-0.181-0.208-0.444-0.328-0.72-0.328c-0.227,0-0.447,0.081-0.62,0.229   c-0.194,0.166-0.312,0.397-0.332,0.652c-0.02,0.255,0.061,0.502,0.227,0.695c0.044,0.052,0.461,0.523,1.342,0.973   c1.13,0.577,2.495,0.869,4.057,0.869c1.552,0,2.933-0.287,4.107-0.854c0.909-0.439,1.362-0.897,1.411-0.949   c0.359-0.376,0.348-0.978-0.026-1.343C21.26,22.826,21.024,22.73,20.773,22.73z M20.743,15.497c-1.434,0-2.601,1.166-2.601,2.599   c0,1.434,1.167,2.6,2.601,2.6c1.433,0,2.599-1.166,2.599-2.6C23.343,16.663,22.177,15.497,20.743,15.497z"/>
</g>

	<metadata>
		<rdf:RDF xmlns:rdf="http://www.w3.org/1999/02/22-rdf-syntax-ns#" xmlns:rdfs="http://www.w3.org/2000/01/rdf-schema#" xmlns:dc="http://purl.org/dc/elements/1.1/">
			<rdf:Description about="https://iconscout.com/legal#licenses" dc:title="Reddit social media corporate logo" dc:description="Reddit social media corporate logo" dc:publisher="Iconscout" dc:date="2017-01-06" dc:format="image/svg+xml" dc:language="en">
				<dc:creator>
					<rdf:Bag>
						<rdf:li>Alfredo Hernandez</rdf:li>
					</rdf:Bag>
				</dc:creator>
			</rdf:Description>
		</rdf:RDF>
    </metadata></svg>
